<svg xmlns="http://www.w3.org/2000/svg" xmlns:xlink="http://www.w3.org/1999/xlink" viewBox="0 0 229.87 120.38"><defs><style>.cls-1{fill:url(#linear-gradient);}.cls-2{fill:url(#linear-gradient-2);}.cls-3{fill:url(#linear-gradient-3);}.cls-4{fill:url(#linear-gradient-4);}.cls-5{fill:url(#linear-gradient-8);}.cls-6{fill:#f68b1f;}</style><linearGradient id="linear-gradient" x1="11.85" y1="11.5" x2="34.85" y2="11.5" gradientUnits="userSpaceOnUse"><stop offset="0" stop-color="#fdc70c"/><stop offset="0.42" stop-color="#f3903f"/><stop offset="0.89" stop-color="#ed683c"/><stop offset="1" stop-color="#e93e3a"/></linearGradient><linearGradient id="linear-gradient-2" x1="28.46" y1="23.8" x2="67.89" y2="23.8" xlink:href="#linear-gradient"/><linearGradient id="linear-gradient-3" x1="0" y1="83.5" x2="74.43" y2="83.5" xlink:href="#linear-gradient"/><linearGradient id="linear-gradient-4" x1="24.87" y1="46.94" x2="57.96" y2="46.94" xlink:href="#linear-gradient"/><linearGradient id="linear-gradient-8" x1="41.96" y1="95.5" x2="86.98" y2="95.5" xlink:href="#linear-gradient"/></defs><title>Asset 1</title><g id="Layer_2" data-name="Layer 2"><g id="Layer_1-2" data-name="Layer 1"><circle class="cls-1" cx="23.35" cy="11.5" r="11.5"/><path class="cls-2" d="M41.73,46.62S81.36-.95,63.07,1.05a19.54,19.54,0,0,0-2.17.31c-2.16.46-9,2.57-32.44,20.46C28.46,21.82,74.83-.87,41.73,46.62Z"/><path class="cls-3" d="M74.43,87.72S-3.21,141.49.1,111.06a16.9,16.9,0,0,1,.84-3.71c1.85-5.24,11-21.68,40.79-60.73C41.73,46.62-31.83,157.08,74.43,87.72Z"/><circle class="cls-4" cx="41.42" cy="46.94" r="16.55"/><path class="cls-2" d="M41.73,46.62S81.36-.95,63.07,1.05a19.54,19.54,0,0,0-2.17.31c-2.16.46-9,2.57-32.44,20.46C28.46,21.82,74.83-.87,41.73,46.62Z"/><path class="cls-3" d="M74.43,87.72S-3.21,141.49.1,111.06a16.9,16.9,0,0,1,.84-3.71c1.85-5.24,11-21.68,40.79-60.73C41.73,46.62-31.83,157.08,74.43,87.72Z"/><circle class="cls-4" cx="41.42" cy="46.94" r="16.55"/><circle class="cls-5" cx="64.47" cy="95.5" r="22.51"/><path class="cls-6" d="M107.66,6.9h15.63a1.93,1.93,0,0,1,0,3.85h-5.91v21.5a1.93,1.93,0,1,1-3.85,0V10.75h-5.87a1.93,1.93,0,1,1,0-3.85Z"/><path class="cls-6" d="M144.72,23.19v9a2,2,0,0,1-1.94,1.95,1.93,1.93,0,0,1-1.91-1.95v-9a4.73,4.73,0,0,0-9.45,0v9a1.93,1.93,0,1,1-3.85,0V6.9a1.93,1.93,0,0,1,3.85,0V16a8.6,8.6,0,0,1,13.3,7.15Z"/><path class="cls-6" d="M166.54,24.4a1.92,1.92,0,0,1-1.95,1.9H151.18a5.92,5.92,0,0,0,5.6,4A7.65,7.65,0,0,0,161.13,29a1.86,1.86,0,0,1,2.57.89,2,2,0,0,1-.93,2.57,9.53,9.53,0,0,1-6,1.67,9.76,9.76,0,1,1,0-19.52A9.58,9.58,0,0,1,166.54,24.4Zm-15.36-1.94h11.24a5.69,5.69,0,0,0-5.64-4A5.94,5.94,0,0,0,151.18,22.46Z"/><path class="cls-6" d="M108.52,60.06a13.71,13.71,0,0,1,13.72-13.68,13.15,13.15,0,0,1,11.63,6.72,1.94,1.94,0,1,1-3.27,2.1,9.71,9.71,0,0,0-8.36-4.86,9.81,9.81,0,0,0-9.76,9.72,9.73,9.73,0,0,0,17.89,5.13,1.68,1.68,0,0,1,2.56-.46,1.7,1.7,0,0,1,.7,2.56,13.41,13.41,0,0,1-11.39,6.3A13.7,13.7,0,0,1,108.52,60.06Z"/><path class="cls-6" d="M155.53,64v7.62a1.88,1.88,0,0,1-1.94,1.94,2,2,0,0,1-1.87-1.94A8.48,8.48,0,0,1,146,73.55,9.54,9.54,0,0,1,136.13,64,9.77,9.77,0,0,1,146,54.15,9.55,9.55,0,0,1,155.53,64Zm-3.81,0A5.88,5.88,0,0,0,146,58a6.11,6.11,0,0,0-6,6,5.88,5.88,0,0,0,6,5.75A5.65,5.65,0,0,0,151.72,64Z"/><path class="cls-6" d="M169.57,56A2,2,0,0,1,167.63,58a5.9,5.9,0,0,0-5.91,5.91v7.82a1.93,1.93,0,1,1-3.85,0V63.87a9.77,9.77,0,0,1,9.76-9.76A1.92,1.92,0,0,1,169.57,56Z"/><path class="cls-6" d="M189,63.83A1.92,1.92,0,0,1,187,65.74H173.62a5.91,5.91,0,0,0,5.59,4,7.67,7.67,0,0,0,4.36-1.28,1.86,1.86,0,0,1,2.57.89,2,2,0,0,1-.94,2.57,9.51,9.51,0,0,1-6,1.67,9.76,9.76,0,0,1,0-19.52A9.57,9.57,0,0,1,189,63.83Zm-15.35-1.94h11.23a5.68,5.68,0,0,0-5.64-4A5.93,5.93,0,0,0,173.62,61.89Z"/><path class="cls-6" d="M210.83,63.83a1.93,1.93,0,0,1-2,1.91H195.47a5.93,5.93,0,0,0,5.6,4,7.65,7.65,0,0,0,4.35-1.28,1.86,1.86,0,0,1,2.57.89,2,2,0,0,1-.93,2.57,9.53,9.53,0,0,1-6,1.67,9.76,9.76,0,1,1,0-19.52A9.58,9.58,0,0,1,210.83,63.83Zm-15.36-1.94h11.24a5.7,5.7,0,0,0-5.64-4A5.94,5.94,0,0,0,195.47,61.89Z"/><path class="cls-6" d="M224.87,56A2,2,0,0,1,222.93,58,5.9,5.9,0,0,0,217,63.87v7.82a1.93,1.93,0,1,1-3.85,0V63.87a9.77,9.77,0,0,1,9.76-9.76A1.92,1.92,0,0,1,224.87,56Z"/><path class="cls-6" d="M131,110.76a1.94,1.94,0,0,1-1.94,1.94H115.54a1.93,1.93,0,0,1-2-1.94V87.51a1.95,1.95,0,0,1,3.89,0v21.31h11.59A1.94,1.94,0,0,1,131,110.76Z"/><path class="cls-6" d="M150.38,103.1v7.62a1.89,1.89,0,0,1-1.95,2,2,2,0,0,1-1.86-2,8.49,8.49,0,0,1-5.76,2A9.55,9.55,0,0,1,131,103.1a9.77,9.77,0,0,1,9.83-9.83A9.55,9.55,0,0,1,150.38,103.1Zm-3.81,0a5.88,5.88,0,0,0-5.76-6,6.1,6.1,0,0,0-6,6,5.88,5.88,0,0,0,6,5.76A5.65,5.65,0,0,0,146.57,103.1Z"/><path class="cls-6" d="M168.42,95.09V85.41a1.93,1.93,0,0,1,3.85,0v17.46a9.73,9.73,0,1,1-3.85-7.78Zm0,7.78v0a5.91,5.91,0,1,0-5.91,6A5.89,5.89,0,0,0,168.42,102.83Z"/><path class="cls-6" d="M190.2,95.09V85.41a1.93,1.93,0,0,1,3.85,0v17.46a9.73,9.73,0,1,1-3.85-7.78Zm0,7.78v0a5.91,5.91,0,1,0-5.91,6A5.89,5.89,0,0,0,190.2,102.83Z"/><path class="cls-6" d="M215.83,103a1.92,1.92,0,0,1-2,1.9H200.47a5.94,5.94,0,0,0,5.6,4,7.6,7.6,0,0,0,4.35-1.29,1.86,1.86,0,0,1,2.57.9,2,2,0,0,1-.93,2.56,9.53,9.53,0,0,1-6,1.67,9.76,9.76,0,1,1,0-19.51A9.58,9.58,0,0,1,215.83,103Zm-15.36-2h11.24a5.69,5.69,0,0,0-5.64-4A5.94,5.94,0,0,0,200.47,101Z"/><path class="cls-6" d="M229.87,95.13a2,2,0,0,1-2,2A5.91,5.91,0,0,0,222,103v7.81a1.92,1.92,0,1,1-3.84,0V103a9.76,9.76,0,0,1,9.75-9.76A1.92,1.92,0,0,1,229.87,95.13Z"/></g></g></svg>